<svg width="160" height="38" viewBox="0 0 160 38" fill="none" xmlns="http://www.w3.org/2000/svg">
<path d="M10.856 25.192C11.08 26.712 11.992 27.912 13.592 28.792C15.192 29.656 17.304 30.088 19.928 30.088C22.392 30.088 24.312 29.768 25.688 29.128C27.08 28.488 27.776 27.576 27.776 26.392C27.776 25.752 27.6 25.224 27.248 24.808C26.896 24.376 26.296 24.024 25.448 23.752C24.616 23.48 23.456 23.272 21.968 23.128L15.296 22.504C10.384 22.056 6.792 20.952 4.52 19.192C2.264 17.416 1.136 14.952 1.136 11.8C1.136 9.352 1.856 7.264 3.296 5.536C4.736 3.792 6.768 2.472 9.392 1.576C12.032 0.663998 15.128 0.207997 18.68 0.207997C22.104 0.207997 25.168 0.703998 27.872 1.696C30.576 2.688 32.712 4.08 34.28 5.872C35.864 7.664 36.736 9.736 36.896 12.088H26.768C26.592 10.792 25.776 9.776 24.32 9.04C22.88 8.288 20.936 7.912 18.488 7.912C16.216 7.912 14.432 8.216 13.136 8.824C11.856 9.432 11.216 10.296 11.216 11.416C11.216 12.296 11.616 12.984 12.416 13.48C13.216 13.96 14.616 14.304 16.616 14.512L23.792 15.208C27.2 15.528 29.928 16.08 31.976 16.864C34.024 17.648 35.512 18.72 36.44 20.08C37.368 21.44 37.832 23.16 37.832 25.24C37.832 27.736 37.08 29.936 35.576 31.84C34.072 33.728 31.952 35.192 29.216 36.232C26.48 37.272 23.32 37.792 19.736 37.792C16.04 37.792 12.768 37.272 9.92 36.232C7.072 35.176 4.848 33.696 3.248 31.792C1.648 29.888 0.808 27.688 0.728 25.192H10.856ZM52.7491 0.999997V37H42.7891V0.999997H52.7491ZM67.1578 0.999997L74.6698 27.664L83.5018 0.999997H94.0138L102.846 27.688L110.382 0.999997H120.894L109.95 37H97.1578L88.7578 12.256L80.3337 37H67.5418L56.5978 0.999997H67.1578ZM132.075 25.192C132.299 26.712 133.211 27.912 134.811 28.792C136.411 29.656 138.523 30.088 141.147 30.088C143.611 30.088 145.531 29.768 146.907 29.128C148.299 28.488 148.995 27.576 148.995 26.392C148.995 25.752 148.819 25.224 148.467 24.808C148.115 24.376 147.515 24.024 146.667 23.752C145.835 23.48 144.675 23.272 143.187 23.128L136.515 22.504C131.603 22.056 128.011 20.952 125.739 19.192C123.483 17.416 122.355 14.952 122.355 11.8C122.355 9.352 123.075 7.264 124.515 5.536C125.955 3.792 127.987 2.472 130.611 1.576C133.251 0.663998 136.347 0.207997 139.899 0.207997C143.323 0.207997 146.387 0.703998 149.091 1.696C151.795 2.688 153.931 4.08 155.499 5.872C157.083 7.664 157.955 9.736 158.115 12.088H147.987C147.811 10.792 146.995 9.776 145.539 9.04C144.099 8.288 142.155 7.912 139.707 7.912C137.435 7.912 135.651 8.216 134.355 8.824C133.075 9.432 132.435 10.296 132.435 11.416C132.435 12.296 132.835 12.984 133.635 13.48C134.435 13.96 135.835 14.304 137.835 14.512L145.011 15.208C148.419 15.528 151.147 16.08 153.195 16.864C155.243 17.648 156.731 18.72 157.659 20.08C158.587 21.44 159.051 23.16 159.051 25.24C159.051 27.736 158.299 29.936 156.795 31.84C155.291 33.728 153.171 35.192 150.435 36.232C147.699 37.272 144.539 37.792 140.955 37.792C137.259 37.792 133.987 37.272 131.139 36.232C128.291 35.176 126.067 33.696 124.467 31.792C122.867 29.888 122.027 27.688 121.947 25.192H132.075Z" fill="white"/>
</svg>
